<?xml version="1.0" encoding="UTF-8"?>
<svg id="uuid-30fbb58f-3e74-460b-ad0e-ebce808e5425" data-name="Layer 2" xmlns="http://www.w3.org/2000/svg" viewBox="0 0 1162.07 208.98">
  <defs>
    <style>
      .uuid-b07e7f4e-fdd3-48d8-8b50-24c5c149fd0a {
        fill: #132346;
      }

      .uuid-4b255689-203b-488f-82e4-f2e09eebcb29 {
        fill: #2f6aaf;
      }
    </style>
  </defs>
  <g id="uuid-b39f5e50-a8a9-48f4-bec8-64a2c9d6354b" data-name="Layer 1">
    <rect class="uuid-4b255689-203b-488f-82e4-f2e09eebcb29" x="456.2" y="169.39" width="83.55" height="6.99"/>
    <rect class="uuid-4b255689-203b-488f-82e4-f2e09eebcb29" x="1078.52" y="169.39" width="83.55" height="6.99"/>
    <g>
      <path class="uuid-b07e7f4e-fdd3-48d8-8b50-24c5c149fd0a" d="M350.75,69.57c2.57-6.17-4.02-11.03-9.93-11.7-19.16-2.17-37.67-1.29-57.13,1.12-81.28,10.04-167.71,41.94-237.84,84.22-11.71,4.03-21.88,8.84-33.03,14.35,3.64-7.48,7.29-14.71,14.14-19.36,74.82-50.83,160.16-84.81,249.81-98.41,32.82-4.98,88.92-7.55,115.72,7.81,3.78,2.16,6.49,6.11,7.49,9.1,1.51,4.52.16,9.18-2.71,13.12-15.78,21.61-32.37,41.69-50.54,61.36l-32.94,35.64-12.92.44c15.23-26.82,29.57-53.33,42.94-80.99l6.95-16.71Z"/>
      <path class="uuid-4b255689-203b-488f-82e4-f2e09eebcb29" d="M338.66,191.55c-31.35,14.74-64.69,19.48-98.8,16.66-22.03-1.82-42.28-7.05-63.08-13.93-61.8-20.45-111.46-30.46-176.78-12.27,21.48-18.09,46.73-26.99,72.96-32.52,28.02-4.84,55.67-3.67,83.42,2.5,19.94,4.27,38.27,10.49,57.8,16.15,56.46,16.36,110.96,18.44,166.11-6.04-11.89,13.05-25.71,21.96-41.63,29.44Z"/>
      <path class="uuid-b07e7f4e-fdd3-48d8-8b50-24c5c149fd0a" d="M292.02,167.41c-33.73-.45-67.1-8.72-98.53-18.9l56.76-16.65c13.71-4.02,54.73-17.36,59.54-13.98,4.15,2.92-17.77,49.53-17.77,49.53Z"/>
      <path class="uuid-b07e7f4e-fdd3-48d8-8b50-24c5c149fd0a" d="M154.25,62.75c-5.39-10.59-10.63-20.9-17.27-30.22,5.09-1.78,6.4-2.55,11.69-4.42,29.28-10.35,61.22-13.95,91.78-7.89,13.25,2.63,23.43,9.37,25.42,12.43.03.05.08.08.12.12-38,6.37-74.43,16.25-111.75,29.97Z"/>
      <path class="uuid-b07e7f4e-fdd3-48d8-8b50-24c5c149fd0a" d="M81.71,94.12l-29.88,16.19c5.94-8.29,14.39-12.18,21.98-18.15,6.66-17.96,13.6-35.37,23.83-51.43l-14.49-8.75c-1.06-.64-1.34-2.01-1.15-3.03.17-.97.73-1.71,2.04-2.48C129.15-.29,182.31-6.4,232.61,6.51c1.57.4,2.62,2.02,2.18,3.58-.05.19-.12.34-.2.44-.37.51-2.8.2-2.8.2-30.53-1.13-60.4,1.4-89.53,10.87-17.67,5.74-32.71,17.07-42.53,32.59-7.88,12.46-12.77,25.42-18.03,39.92Z"/>
    </g>
    <g>
      <path class="uuid-b07e7f4e-fdd3-48d8-8b50-24c5c149fd0a" d="M526.27,76.31c3.3,4.24,4.96,9.09,4.96,14.54,0,7.86-2.75,14.09-8.24,18.69-5.49,4.6-13.15,6.9-22.98,6.9h-43.81V22.39h42.33c9.56,0,17.03,2.19,22.44,6.56,5.4,4.38,8.1,10.32,8.1,17.82,0,5.54-1.45,10.14-4.35,13.8-2.9,3.66-6.77,6.21-11.59,7.64,5.45,1.16,9.82,3.86,13.13,8.11ZM479.11,60.44h15c3.75,0,6.63-.83,8.64-2.48,2.01-1.65,3.01-4.09,3.01-7.3s-1-5.67-3.01-7.37c-2.01-1.7-4.89-2.54-8.64-2.54h-15v19.69ZM504.9,95.34c2.1-1.74,3.15-4.26,3.15-7.57s-1.1-5.89-3.28-7.77c-2.19-1.88-5.2-2.81-9.04-2.81h-16.61v20.77h16.88c3.84,0,6.81-.87,8.91-2.61Z"/>
      <path class="uuid-b07e7f4e-fdd3-48d8-8b50-24c5c149fd0a" d="M564.65,111.21c-7.37-4.11-13.22-9.85-17.55-17.21-4.33-7.37-6.5-15.65-6.5-24.85s2.16-17.46,6.5-24.78c4.33-7.32,10.18-13.04,17.55-17.15,7.37-4.11,15.47-6.16,24.31-6.16s16.95,2.06,24.32,6.16c7.37,4.11,13.17,9.83,17.42,17.15,4.24,7.32,6.36,15.59,6.36,24.78s-2.14,17.48-6.43,24.85c-4.29,7.37-10.09,13.11-17.42,17.21-7.32,4.11-15.41,6.16-24.25,6.16s-16.95-2.05-24.31-6.16ZM606.98,88.97c4.51-5,6.77-11.61,6.77-19.83s-2.26-14.94-6.77-19.89c-4.51-4.96-10.52-7.44-18.02-7.44s-13.64,2.46-18.15,7.37c-4.51,4.91-6.77,11.57-6.77,19.96s2.25,14.94,6.77,19.89c4.51,4.96,10.56,7.44,18.15,7.44s13.51-2.5,18.02-7.5Z"/>
      <path class="uuid-b07e7f4e-fdd3-48d8-8b50-24c5c149fd0a" d="M708.33,99.82h-35.1l-5.63,16.61h-23.98l34.03-94.04h26.53l34.03,94.04h-24.25l-5.63-16.61ZM702.43,82.14l-11.66-34.43-11.52,34.43h23.18Z"/>
      <path class="uuid-b07e7f4e-fdd3-48d8-8b50-24c5c149fd0a" d="M816.17,22.39v18.35h-24.92v75.69h-22.91V40.74h-24.92v-18.35h72.74Z"/>
      <path class="uuid-b07e7f4e-fdd3-48d8-8b50-24c5c149fd0a" d="M937.54,22.39v94.04h-22.91v-38.72h-35.64v38.72h-22.91V22.39h22.91v36.84h35.64V22.39h22.91Z"/>
      <path class="uuid-b07e7f4e-fdd3-48d8-8b50-24c5c149fd0a" d="M976.93,40.74v19.02h30.68v17.68h-30.68v20.63h34.7v18.35h-57.61V22.39h57.61v18.35h-34.7Z"/>
      <path class="uuid-b07e7f4e-fdd3-48d8-8b50-24c5c149fd0a" d="M1049.4,98.75h30.01v17.68h-52.92V22.39h22.91v76.36Z"/>
      <path class="uuid-b07e7f4e-fdd3-48d8-8b50-24c5c149fd0a" d="M1158.32,67.6c-2.5,4.51-6.34,8.15-11.52,10.92-5.18,2.77-11.61,4.15-19.29,4.15h-14.2v33.76h-22.91V22.39h37.11c7.5,0,13.84,1.3,19.02,3.88,5.18,2.59,9.06,6.16,11.66,10.72,2.59,4.55,3.88,9.78,3.88,15.67,0,5.45-1.25,10.43-3.75,14.94ZM1135.54,61.37c2.14-2.05,3.22-4.96,3.22-8.71s-1.07-6.65-3.22-8.71c-2.14-2.05-5.4-3.08-9.78-3.08h-12.46v23.58h12.46c4.37,0,7.64-1.03,9.78-3.08Z"/>
    </g>
    <g>
      <path class="uuid-4b255689-203b-488f-82e4-f2e09eebcb29" d="M609.67,195.47h-10.43l-17.45-26.41v26.41h-10.43v-42.82h10.43l17.45,26.54v-26.54h10.43v42.82Z"/>
      <path class="uuid-4b255689-203b-488f-82e4-f2e09eebcb29" d="M655.84,161.01v8.66h13.97v8.05h-13.97v9.39h15.8v8.36h-26.23v-42.82h26.23v8.36h-15.8Z"/>
      <path class="uuid-4b255689-203b-488f-82e4-f2e09eebcb29" d="M737.4,152.65v8.36h-11.35v34.47h-10.43v-34.47h-11.35v-8.36h33.12Z"/>
      <path class="uuid-4b255689-203b-488f-82e4-f2e09eebcb29" d="M829.76,152.65l-11.16,42.82h-12.63l-6.83-28.18-7.08,28.18h-12.63l-10.86-42.82h11.16l6.16,31.17,7.62-31.17h11.47l7.32,31.17,6.22-31.17h11.22Z"/>
      <path class="uuid-4b255689-203b-488f-82e4-f2e09eebcb29" d="M872.37,193.1c-3.35-1.87-6.02-4.48-7.99-7.84-1.97-3.36-2.96-7.13-2.96-11.32s.99-7.95,2.96-11.29c1.97-3.33,4.64-5.94,7.99-7.81,3.35-1.87,7.05-2.81,11.07-2.81s7.72.94,11.07,2.81c3.35,1.87,6,4.47,7.93,7.81,1.93,3.33,2.9,7.1,2.9,11.29s-.98,7.96-2.93,11.32-4.6,5.97-7.93,7.84c-3.33,1.87-7.02,2.81-11.04,2.81s-7.72-.93-11.07-2.81ZM891.64,182.97c2.05-2.28,3.08-5.29,3.08-9.03s-1.03-6.8-3.08-9.06c-2.05-2.26-4.79-3.39-8.2-3.39s-6.21,1.12-8.27,3.35c-2.05,2.24-3.08,5.27-3.08,9.09s1.03,6.8,3.08,9.06c2.05,2.26,4.81,3.39,8.27,3.39s6.15-1.14,8.2-3.42Z"/>
      <path class="uuid-4b255689-203b-488f-82e4-f2e09eebcb29" d="M961.15,195.47l-8.91-16.17h-2.5v16.17h-10.43v-42.82h17.51c3.38,0,6.25.59,8.63,1.77,2.38,1.18,4.16,2.8,5.34,4.85,1.18,2.05,1.77,4.34,1.77,6.86,0,2.85-.8,5.39-2.41,7.62-1.61,2.24-3.98,3.82-7.11,4.76l9.88,16.96h-11.77ZM949.75,171.93h6.47c1.91,0,3.34-.47,4.3-1.4.96-.94,1.43-2.26,1.43-3.97s-.48-2.91-1.43-3.84c-.96-.93-2.39-1.4-4.3-1.4h-6.47v10.61Z"/>
      <path class="uuid-4b255689-203b-488f-82e4-f2e09eebcb29" d="M1032.1,195.47l-14.4-18.91v18.91h-10.43v-42.82h10.43v18.79l14.27-18.79h12.26l-16.59,20.98,17.2,21.84h-12.75Z"/>
    </g>
  </g>
</svg>