<svg width="24" height="24" viewBox="0 0 24 24" fill="none" xmlns="http://www.w3.org/2000/svg">
<path d="M12.1861 0C12.4994 0.128232 12.7033 0.387044 12.7033 0.749193V1.83987C14.9259 1.99816 16.9856 2.84881 18.6771 4.31526L19.2332 3.77696C19.1054 3.47823 19.1261 3.16963 19.3544 2.93477C19.5587 2.72434 19.8889 2.65858 20.1881 2.81405L20.6207 2.38661C20.9073 2.10338 21.3605 2.12545 21.6222 2.40023C21.8838 2.67502 21.8786 3.12031 21.5926 3.40542L21.1853 3.81125C21.3361 4.10201 21.2812 4.41718 21.0886 4.62292C20.8659 4.86012 20.554 4.9226 20.2356 4.76054L19.6846 5.32232C21.1525 7.01611 22.0017 9.07298 22.1609 11.2971L23.2037 11.2943C23.5832 11.2933 23.8679 11.4713 24.0003 11.8241V12.1891C23.8674 12.5315 23.5832 12.7095 23.2037 12.7086L22.1609 12.7057C22.0022 14.9298 21.1525 16.9867 19.6846 18.6805L20.2365 19.2427C20.555 19.0845 20.865 19.1479 21.0886 19.3813C21.284 19.5852 21.3352 19.9018 21.1863 20.1916L21.5931 20.5974C21.8796 20.883 21.8923 21.3198 21.6226 21.6026C21.353 21.8854 20.9082 21.8994 20.6212 21.6162L20.191 21.1916C19.895 21.3428 19.5559 21.2869 19.3544 21.0713C19.1308 20.8323 19.1045 20.5279 19.2341 20.2259L18.6775 19.6876C16.9856 21.154 14.9264 22.0047 12.7037 22.163V23.2546C12.7037 23.6651 12.4167 23.9864 12.0198 24C11.6445 24.0127 11.2998 23.7116 11.2979 23.302L11.2932 22.163C9.07331 22.0047 7.01127 21.154 5.32077 19.6876L4.76369 20.2263C4.90085 20.5392 4.86186 20.8609 4.61949 21.0958C4.41517 21.294 4.09059 21.3353 3.80736 21.1921L3.3771 21.6167C3.08964 21.9004 2.63636 21.8778 2.37473 21.6021C2.1131 21.3264 2.11075 20.9018 2.38413 20.6237L2.8111 20.1906C2.66454 19.9041 2.71386 19.5852 2.90974 19.3818C3.13379 19.1488 3.44286 19.0849 3.76179 19.2437L4.31371 18.681C2.84585 16.9891 1.99614 14.9284 1.83738 12.7081L0.698325 12.7029C0.290614 12.701 -0.0114118 12.361 0.000330984 11.981C0.0116041 11.6155 0.305175 11.3079 0.698795 11.3027L1.83973 11.2867C1.99849 9.0293 2.87404 6.98699 4.31606 5.31762L3.76039 4.76289C3.44521 4.92119 3.13144 4.86106 2.9088 4.62386C2.71621 4.41812 2.66267 4.10154 2.81063 3.81313L2.38366 3.38053C2.09948 3.09259 2.1225 2.63979 2.39775 2.37816C2.66783 2.1217 3.09668 2.11653 3.37616 2.38802L3.8191 2.81828C4.12911 2.6473 4.4457 2.73655 4.6411 2.93665C4.85905 3.16023 4.90555 3.46085 4.75806 3.76334L5.3142 4.31995C6.99154 2.86478 9.05969 1.99675 11.2932 1.84128L11.2889 0.845484C11.2875 0.448106 11.444 0.138096 11.8207 0.000469713L12.1861 0ZM20.7762 12.0012C20.7762 7.15373 16.8466 3.22411 11.9987 3.22411C7.15078 3.22411 3.22116 7.15373 3.22116 12.0012C3.22116 16.8486 7.15078 20.7782 11.9987 20.7782C16.8466 20.7782 20.7762 16.8486 20.7762 12.0012Z" fill="#0057FF"/>
<path d="M19.6572 12.0012C19.6572 16.231 16.2283 19.6599 11.9985 19.6599C7.76878 19.6599 4.33987 16.231 4.33987 12.0012C4.33987 7.77143 7.76878 4.34299 11.9985 4.34299C16.2283 4.34299 19.6572 7.77143 19.6572 12.0012ZM10.2221 9.22801C10.5542 9.01946 10.883 8.87995 11.2935 8.78131L11.2963 5.78454C10.1324 5.91465 9.02855 6.37262 8.10274 7.10866L10.2221 9.22801ZM13.7783 9.22519L15.8939 7.10866C14.9681 6.37309 13.8647 5.91465 12.7008 5.78454L12.7036 8.78178C13.1146 8.87901 13.4406 9.02274 13.7783 9.22519ZM8.78242 11.2947C8.88529 10.849 9.02291 10.5503 9.22536 10.2247L7.10601 8.10539C6.37044 9.03073 5.91153 10.1346 5.78189 11.2994L8.78242 11.2947ZM15.2344 11.2994L18.2175 11.2976C18.0785 10.1275 17.6389 9.04999 16.892 8.10633L14.7722 10.2252C14.9887 10.5639 15.117 10.9152 15.2344 11.2994ZM13.8844 12.0012C13.8844 10.9598 13.0404 10.1153 11.9985 10.1153C10.9567 10.1153 10.1126 10.9594 10.1126 12.0012C10.1126 13.043 10.9567 13.8871 11.9985 13.8871C13.0404 13.8871 13.8844 13.043 13.8844 12.0012ZM9.22489 13.7777C9.01634 13.4456 8.87683 13.1168 8.77819 12.7062L5.78142 12.7034C5.91153 13.8674 6.36997 14.9712 7.10554 15.897L9.22489 13.7777ZM16.8911 15.8975C17.6276 14.9717 18.0856 13.8674 18.2157 12.7044H15.2259C15.1231 13.0825 14.9986 13.4207 14.7713 13.7748L16.8911 15.8975ZM11.2963 18.2183L11.2935 15.2215C10.883 15.1229 10.5542 14.9839 10.2221 14.7749L8.10274 16.8942C9.02855 17.6302 10.1324 18.0882 11.2963 18.2183ZM12.7017 18.2183C13.8647 18.0877 14.9685 17.6302 15.8943 16.8942L13.775 14.7753C13.4354 14.9905 13.0883 15.1253 12.7022 15.2291L12.7017 18.2183Z" fill="#0057FF"/>
</svg>
