<svg width="24" height="24" viewBox="0 0 24 24" fill="none" xmlns="http://www.w3.org/2000/svg">
<path fill-rule="evenodd" clip-rule="evenodd" d="M13.9395 0C15.0114 0 15.8808 0.868539 15.8809 1.94043V6.30371C15.8806 7.37542 15.0112 8.24512 13.9395 8.24512H12.6084V10.9082H18.3037C18.8183 10.9083 19.3119 11.1127 19.6758 11.4766C20.0396 11.8405 20.2441 12.334 20.2441 12.8486V15.2715H21.5762C22.6478 15.2717 23.5174 16.1403 23.5176 17.2119V21.5752C23.5176 22.647 22.6479 23.5164 21.5762 23.5166H17.2129C16.141 23.5166 15.2725 22.6471 15.2725 21.5752V17.2119C15.2726 16.1402 16.1411 15.2715 17.2129 15.2715H18.5439V12.8486C18.5439 12.7849 18.5187 12.7238 18.4736 12.6787C18.4285 12.6336 18.3675 12.6085 18.3037 12.6084H5.21289C5.14908 12.6084 5.08812 12.6336 5.04297 12.6787C4.99788 12.7238 4.97175 12.7849 4.97168 12.8486V15.2715H6.30371C7.37541 15.2716 8.24493 16.1402 8.24512 17.2119V21.5752C8.24512 22.647 7.37553 23.5165 6.30371 23.5166H1.94043C0.868539 23.5166 0 22.6471 0 21.5752V17.2119C0.000189021 16.1402 0.868656 15.2715 1.94043 15.2715H3.27246V12.8486C3.27253 12.334 3.47692 11.8405 3.84082 11.4766C4.20478 11.1127 4.69821 10.9082 5.21289 10.9082H10.9082V8.24512H9.57617C8.50446 8.24506 7.63599 7.37538 7.63574 6.30371V1.94043C7.63577 0.868578 8.50433 6.23018e-05 9.57617 0H13.9395ZM1.94043 16.9707C1.80754 16.9707 1.69941 17.0791 1.69922 17.2119V21.5752C1.69922 21.7082 1.80742 21.8164 1.94043 21.8164H6.30371C6.43664 21.8163 6.54492 21.7082 6.54492 21.5752V17.2119C6.54473 17.0791 6.43653 16.9708 6.30371 16.9707H4.13965C4.1338 16.9708 4.12795 16.9717 4.12207 16.9717C4.11622 16.9717 4.11031 16.9708 4.10449 16.9707H1.94043ZM17.2129 16.9707C17.08 16.9707 16.9719 17.0791 16.9717 17.2119V21.5752C16.9717 21.7082 17.0799 21.8164 17.2129 21.8164H21.5762C21.709 21.8162 21.8174 21.7081 21.8174 21.5752V17.2119C21.8172 17.0792 21.7089 16.9709 21.5762 16.9707H19.4121C19.4063 16.9708 19.4004 16.9717 19.3945 16.9717C19.3887 16.9717 19.3828 16.9708 19.377 16.9707H17.2129ZM9.57617 1.69922C9.44321 1.69928 9.33499 1.80746 9.33496 1.94043V6.30371C9.33521 6.43649 9.44335 6.54486 9.57617 6.54492H13.9395C14.0723 6.54492 14.1804 6.43653 14.1807 6.30371V1.94043C14.1806 1.80742 14.0725 1.69922 13.9395 1.69922H9.57617Z" fill="#0057FF"/>
</svg>
