<svg width="23" height="23" viewBox="0 0 23 23" fill="none" xmlns="http://www.w3.org/2000/svg">
<path fill-rule="evenodd" clip-rule="evenodd" d="M10.7034 0.0286882C11.1557 -0.00234406 11.548 0.33905 11.5794 0.791384C11.6105 1.24355 11.2688 1.6357 10.8167 1.66736C8.93425 1.79819 7.12832 2.46656 5.61454 3.59314C4.10072 4.71985 2.94237 6.25803 2.27665 8.02381C1.61102 9.78955 1.46643 11.7094 1.85966 13.5551C2.25297 15.4006 3.16783 17.0949 4.4954 18.4359C5.82293 19.7766 7.50763 20.7087 9.34892 21.1205C11.1904 21.5321 13.1128 21.407 14.8851 20.7592C16.6572 20.1112 18.2062 18.9675 19.3479 17.4652C20.4897 15.9628 21.1767 14.1637 21.3265 12.2826C21.3626 11.8305 21.7581 11.4937 22.2102 11.5297C22.6622 11.5659 23.0001 11.9614 22.9642 12.4135C22.7894 14.6079 21.9885 16.7066 20.6565 18.4594C19.3244 20.2122 17.5162 21.5462 15.4485 22.3021C13.3809 23.0579 11.1389 23.2043 8.99052 22.724C6.84223 22.2436 4.87627 21.1564 3.32744 19.5922C1.77855 18.0276 0.711077 16.0501 0.25224 13.8969C-0.206405 11.7437 -0.0370478 9.50366 0.739545 7.44373C1.51623 5.38378 2.86803 3.59019 4.63408 2.27576C6.40025 0.961329 8.50709 0.181271 10.7034 0.0286882ZM9.39189 6.15174C9.81433 5.98635 10.291 6.19511 10.4563 6.61756C10.6214 7.03987 10.4137 7.51664 9.9915 7.68201C9.35585 7.93087 8.79146 8.33346 8.35087 8.85486C7.91033 9.37628 7.60734 10.0001 7.46806 10.6683C7.32887 11.3365 7.35747 12.0291 7.55302 12.683C7.74864 13.337 8.10489 13.9324 8.58818 14.4144C9.07138 14.8963 9.66732 15.2498 10.3216 15.4437C10.9761 15.6376 11.6693 15.6658 12.3372 15.5248C13.005 15.3837 13.6276 15.0779 14.1477 14.6361C14.6678 14.1943 15.0695 13.6296 15.3167 12.9935C15.481 12.5707 15.9573 12.3615 16.3802 12.5258C16.8027 12.6902 17.0121 13.1656 16.8479 13.5883C16.5019 14.4789 15.9394 15.2694 15.2112 15.8881C14.4828 16.5067 13.6111 16.9348 12.6761 17.1322C11.741 17.3296 10.7711 17.2904 9.85478 17.0189C8.93873 16.7475 8.10454 16.2522 7.42802 15.5775C6.75143 14.9027 6.25364 14.0692 5.97978 13.1537C5.70595 12.2381 5.6647 11.268 5.85966 10.3324C6.05467 9.39718 6.47949 8.52508 7.09599 7.79529C7.71274 7.06538 8.50209 6.50016 9.39189 6.15174ZM17.5726 0.168337C17.775 0.0140282 18.04 -0.0392999 18.2894 0.0296648C18.5745 0.108675 18.7957 0.335356 18.8675 0.622438L19.5686 3.43006L22.3763 4.1322C22.6633 4.20398 22.89 4.42426 22.969 4.70935C23.0479 4.99443 22.9672 5.29995 22.7581 5.50916L19.4729 8.79529C19.269 8.99921 18.9725 9.08102 18.6927 9.01111L15.8577 8.30213L12.0794 12.0814C11.7587 12.4016 11.2389 12.4017 10.9183 12.0814C10.5975 11.7607 10.5976 11.2401 10.9183 10.9193L14.6956 7.14002L13.9876 4.30701C13.9177 4.02726 13.9997 3.73075 14.2034 3.52674L17.4895 0.240602L17.5726 0.168337ZM15.6936 4.35877L16.2825 6.71521L18.6399 7.30408L20.5706 5.37341L18.6927 4.90466C18.3986 4.83114 18.1688 4.60101 18.095 4.30701L17.6253 2.42713L15.6936 4.35877Z" fill="#0057FF"/>
</svg>
